<?xml version="1.0" encoding="UTF-8" standalone="no"?>
<svg
   xmlns:dc="http://purl.org/dc/elements/1.1/"
   xmlns:cc="http://creativecommons.org/ns#"
   xmlns:rdf="http://www.w3.org/1999/02/22-rdf-syntax-ns#"
   xmlns:svg="http://www.w3.org/2000/svg"
   xmlns="http://www.w3.org/2000/svg"
   xmlns:sodipodi="http://sodipodi.sourceforge.net/DTD/sodipodi-0.dtd"
   xmlns:inkscape="http://www.inkscape.org/namespaces/inkscape"
   width="172.03603mm"
   height="131.02368mm"
   viewBox="0 0 172.03603 131.02368"
   version="1.1"
   id="svg8"
   sodipodi:docname="modelo_bufala.svg"
   inkscape:export-filename="/home/jbonet/Desktop/EMIBA/BDP/figures_presentation/buffala_burrata_modelo_4.png"
   inkscape:export-xdpi="500"
   inkscape:export-ydpi="500"
   inkscape:version="1.0.2 (1.0.2+r75+1)">
  <defs
     id="defs2">
    <clipPath
       clipPathUnits="userSpaceOnUse"
       id="clipPath967">
      <path
         d="M 117.175,44.8 H 493.2 V 332.2 H 117.175 Z"
         id="path965" />
    </clipPath>
    <clipPath
       clipPathUnits="userSpaceOnUse"
       id="clipPath977">
      <path
         d="M 117.175,44.8 H 493.2 V 332.2 H 117.175 Z"
         id="path975" />
    </clipPath>
    <clipPath
       clipPathUnits="userSpaceOnUse"
       id="clipPath987">
      <path
         d="M 117.175,44.8 H 493.2 V 332.2 H 117.175 Z"
         id="path985" />
    </clipPath>
    <clipPath
       clipPathUnits="userSpaceOnUse"
       id="clipPath997">
      <path
         d="M 117.175,44.8 H 493.2 V 332.2 H 117.175 Z"
         id="path995" />
    </clipPath>
  </defs>
  <sodipodi:namedview
     id="base"
     pagecolor="#ffffff"
     bordercolor="#666666"
     borderopacity="1.0"
     inkscape:pageopacity="0.0"
     inkscape:pageshadow="2"
     inkscape:zoom="0.98994949"
     inkscape:cx="266.74082"
     inkscape:cy="216.67773"
     inkscape:document-units="mm"
     inkscape:current-layer="g1001"
     inkscape:document-rotation="0"
     showgrid="false"
     showguides="true"
     inkscape:guide-bbox="true"
     fit-margin-top="1"
     fit-margin-left="1"
     fit-margin-bottom="1"
     fit-margin-right="1"
     inkscape:window-width="1920"
     inkscape:window-height="1172"
     inkscape:window-x="0"
     inkscape:window-y="0"
     inkscape:window-maximized="1" />
  <metadata
     id="metadata5">
    <rdf:RDF>
      <cc:Work
         rdf:about="">
        <dc:format>image/svg+xml</dc:format>
        <dc:type
           rdf:resource="http://purl.org/dc/dcmitype/StillImage" />
        <dc:title></dc:title>
      </cc:Work>
    </rdf:RDF>
  </metadata>
  <g
     inkscape:label="Layer 1"
     inkscape:groupmode="layer"
     id="layer1"
     transform="translate(-3.5705848,-67.949417)">
    <g
       id="g841"
       inkscape:label="buffala_burrata_time_series_modelo"
       transform="matrix(0.35277777,0,0,-0.35277777,0.47550319,202.59459)">
      <g
         id="g847"
         transform="translate(186.00568,29.440625)">
        <text
           transform="scale(1,-1)"
           style="font-variant:normal;font-weight:normal;font-size:11px;font-family:'DejaVu Sans';-inkscape-font-specification:DejaVuSans;writing-mode:lr-tb;fill:#000000;fill-opacity:1;fill-rule:nonzero;stroke:none"
           id="text851"><tspan
             x="0 6.9959998 13.992 20.988001"
             y="0"
             sodipodi:role="line"
             id="tspan849">2015</tspan></text>
      </g>
      <g
         id="g853"
         transform="translate(295.57008,29.440625)">
        <text
           transform="scale(1,-1)"
           style="font-variant:normal;font-weight:normal;font-size:11px;font-family:'DejaVu Sans';-inkscape-font-specification:DejaVuSans;writing-mode:lr-tb;fill:#000000;fill-opacity:1;fill-rule:nonzero;stroke:none"
           id="text857"><tspan
             x="0 6.9959998 13.992 20.988001"
             y="0"
             sodipodi:role="line"
             id="tspan855">2016</tspan></text>
      </g>
      <g
         id="g859"
         transform="translate(405.13447,29.440625)">
        <text
           transform="scale(1,-1)"
           style="font-variant:normal;font-weight:normal;font-size:11px;font-family:'DejaVu Sans';-inkscape-font-specification:DejaVuSans;writing-mode:lr-tb;fill:#000000;fill-opacity:1;fill-rule:nonzero;stroke:none"
           id="text863"><tspan
             x="0 6.9959998 13.992 20.988001"
             y="0"
             sodipodi:role="line"
             id="tspan861">2017</tspan></text>
      </g>
      <g
         id="g865"
         transform="translate(291.4375,13.284375)">
        <text
           transform="scale(1,-1)"
           style="font-variant:normal;font-weight:normal;font-size:13px;font-family:'DejaVu Sans';-inkscape-font-specification:DejaVuSans;writing-mode:lr-tb;fill:#000000;fill-opacity:1;fill-rule:nonzero;stroke:none"
           id="text869"><tspan
             x="0 6.2242498 14.21925 22.18825"
             y="0"
             sodipodi:role="line"
             id="tspan867">Year</tspan></text>
      </g>
      <path
         d="m 117.175,54.556387 h -3.5"
         style="fill:#000000;fill-opacity:1;fill-rule:nonzero;stroke:#000000;stroke-width:0.8;stroke-linecap:butt;stroke-linejoin:round;stroke-miterlimit:10;stroke-dasharray:none;stroke-opacity:1"
         id="path871" />
      <g
         id="g873"
         transform="translate(103.175,50.376699)">
        <text
           transform="scale(1,-1)"
           style="font-variant:normal;font-weight:normal;font-size:11px;font-family:'DejaVu Sans';-inkscape-font-specification:DejaVuSans;writing-mode:lr-tb;fill:#000000;fill-opacity:1;fill-rule:nonzero;stroke:none"
           id="text877"><tspan
             x="0"
             y="0"
             id="tspan875">0</tspan></text>
      </g>
      <path
         d="m 117.175,87.628884 h -3.5"
         style="fill:#000000;fill-opacity:1;fill-rule:nonzero;stroke:#000000;stroke-width:0.8;stroke-linecap:butt;stroke-linejoin:round;stroke-miterlimit:10;stroke-dasharray:none;stroke-opacity:1"
         id="path879" />
      <g
         id="g881"
         transform="translate(82.175,83.449196)">
        <text
           transform="scale(1,-1)"
           style="font-variant:normal;font-weight:normal;font-size:11px;font-family:'DejaVu Sans';-inkscape-font-specification:DejaVuSans;writing-mode:lr-tb;fill:#000000;fill-opacity:1;fill-rule:nonzero;stroke:none"
           id="text885"><tspan
             x="0 6.9959998 13.992 20.988001"
             y="0"
             sodipodi:role="line"
             id="tspan883">1000</tspan></text>
      </g>
      <path
         d="m 117.175,120.70138 h -3.5"
         style="fill:#000000;fill-opacity:1;fill-rule:nonzero;stroke:#000000;stroke-width:0.8;stroke-linecap:butt;stroke-linejoin:round;stroke-miterlimit:10;stroke-dasharray:none;stroke-opacity:1"
         id="path887" />
      <g
         id="g889"
         transform="translate(82.175,116.52169)">
        <text
           transform="scale(1,-1)"
           style="font-variant:normal;font-weight:normal;font-size:11px;font-family:'DejaVu Sans';-inkscape-font-specification:DejaVuSans;writing-mode:lr-tb;fill:#000000;fill-opacity:1;fill-rule:nonzero;stroke:none"
           id="text893"><tspan
             x="0 6.9959998 13.992 20.988001"
             y="0"
             sodipodi:role="line"
             id="tspan891">2000</tspan></text>
      </g>
      <path
         d="m 117.175,153.77388 h -3.5"
         style="fill:#000000;fill-opacity:1;fill-rule:nonzero;stroke:#000000;stroke-width:0.8;stroke-linecap:butt;stroke-linejoin:round;stroke-miterlimit:10;stroke-dasharray:none;stroke-opacity:1"
         id="path895" />
      <g
         id="g897"
         transform="translate(82.175,149.59419)">
        <text
           transform="scale(1,-1)"
           style="font-variant:normal;font-weight:normal;font-size:11px;font-family:'DejaVu Sans';-inkscape-font-specification:DejaVuSans;writing-mode:lr-tb;fill:#000000;fill-opacity:1;fill-rule:nonzero;stroke:none"
           id="text901"><tspan
             x="0 6.9959998 13.992 20.988001"
             y="0"
             sodipodi:role="line"
             id="tspan899">3000</tspan></text>
      </g>
      <path
         d="m 117.175,186.84637 h -3.5"
         style="fill:#000000;fill-opacity:1;fill-rule:nonzero;stroke:#000000;stroke-width:0.8;stroke-linecap:butt;stroke-linejoin:round;stroke-miterlimit:10;stroke-dasharray:none;stroke-opacity:1"
         id="path903" />
      <g
         id="g905"
         transform="translate(82.175,182.66669)">
        <text
           transform="scale(1,-1)"
           style="font-variant:normal;font-weight:normal;font-size:11px;font-family:'DejaVu Sans';-inkscape-font-specification:DejaVuSans;writing-mode:lr-tb;fill:#000000;fill-opacity:1;fill-rule:nonzero;stroke:none"
           id="text909"><tspan
             x="0 6.9959998 13.992 20.988001"
             y="0"
             sodipodi:role="line"
             id="tspan907">4000</tspan></text>
      </g>
      <path
         d="m 117.175,219.91887 h -3.5"
         style="fill:#000000;fill-opacity:1;fill-rule:nonzero;stroke:#000000;stroke-width:0.8;stroke-linecap:butt;stroke-linejoin:round;stroke-miterlimit:10;stroke-dasharray:none;stroke-opacity:1"
         id="path911" />
      <g
         id="g913"
         transform="translate(82.175,215.73918)">
        <text
           transform="scale(1,-1)"
           style="font-variant:normal;font-weight:normal;font-size:11px;font-family:'DejaVu Sans';-inkscape-font-specification:DejaVuSans;writing-mode:lr-tb;fill:#000000;fill-opacity:1;fill-rule:nonzero;stroke:none"
           id="text917"><tspan
             x="0 6.9959998 13.992 20.988001"
             y="0"
             sodipodi:role="line"
             id="tspan915">5000</tspan></text>
      </g>
      <path
         d="m 117.175,252.99137 h -3.5"
         style="fill:#000000;fill-opacity:1;fill-rule:nonzero;stroke:#000000;stroke-width:0.8;stroke-linecap:butt;stroke-linejoin:round;stroke-miterlimit:10;stroke-dasharray:none;stroke-opacity:1"
         id="path919" />
      <g
         id="g921"
         transform="translate(82.175,248.81168)">
        <text
           transform="scale(1,-1)"
           style="font-variant:normal;font-weight:normal;font-size:11px;font-family:'DejaVu Sans';-inkscape-font-specification:DejaVuSans;writing-mode:lr-tb;fill:#000000;fill-opacity:1;fill-rule:nonzero;stroke:none"
           id="text925"><tspan
             x="0 6.9959998 13.992 20.988001"
             y="0"
             sodipodi:role="line"
             id="tspan923">6000</tspan></text>
      </g>
      <path
         d="m 117.175,281.56387 h -3.5"
         style="fill:#000000;fill-opacity:1;fill-rule:nonzero;stroke:#000000;stroke-width:0.8;stroke-linecap:butt;stroke-linejoin:round;stroke-miterlimit:10;stroke-dasharray:none;stroke-opacity:1"
         id="path927" />
      <g
         id="g929"
         transform="translate(82.175,281.88418)">
        <text
           transform="scale(1,-1)"
           style="font-variant:normal;font-weight:normal;font-size:11px;font-family:'DejaVu Sans';-inkscape-font-specification:DejaVuSans;writing-mode:lr-tb;fill:#000000;fill-opacity:1;fill-rule:nonzero;stroke:none"
           id="text933"><tspan
             x="0 6.9959998 13.992 20.988001"
             y="0"
             sodipodi:role="line"
             id="tspan931">7000</tspan></text>
      </g>
      <path
         d="m 117.175,314.63636 h -3.5"
         style="fill:#000000;fill-opacity:1;fill-rule:nonzero;stroke:#000000;stroke-width:0.8;stroke-linecap:butt;stroke-linejoin:round;stroke-miterlimit:10;stroke-dasharray:none;stroke-opacity:1"
         id="path935" />
      <g
         id="g937"
         transform="translate(82.175,314.95668)">
        <text
           transform="scale(1,-1)"
           style="font-variant:normal;font-weight:normal;font-size:11px;font-family:'DejaVu Sans';-inkscape-font-specification:DejaVuSans;writing-mode:lr-tb;fill:#000000;fill-opacity:1;fill-rule:nonzero;stroke:none"
           id="text941"><tspan
             x="0 6.9959998 13.992 20.988001"
             y="0"
             sodipodi:role="line"
             id="tspan939">8000</tspan></text>
      </g>
      <g
         id="g943"
         transform="translate(10.878125,200.80937)">
        <text
           transform="scale(1,-1)"
           style="font-variant:normal;font-weight:normal;font-size:13px;font-family:'DejaVu Sans';-inkscape-font-specification:DejaVuSans;writing-mode:lr-tb;fill:#000000;fill-opacity:1;fill-rule:nonzero;stroke:none"
           id="text947"><tspan
             x="0 9.0740004 17.042999 25.285 30.381001 33.994999 42.25 50.219002 58.473999"
             y="0"
             sodipodi:role="line"
             id="tspan945">Cantidad</tspan></text>
      </g>
      <g
         id="g949"
         transform="translate(31.979687,186.25625)">
        <text
           transform="scale(1,-1)"
           style="font-variant:normal;font-weight:normal;font-size:13px;font-family:'DejaVu Sans';-inkscape-font-specification:DejaVuSans;writing-mode:lr-tb;fill:#000000;fill-opacity:1;fill-rule:nonzero;stroke:none"
           id="text953"><tspan
             x="0 8.2550001 16.25"
             y="0"
             sodipodi:role="line"
             id="tspan951">de</tspan></text>
      </g>
      <g
         id="g955"
         transform="translate(13.510938,171.70312)">
        <text
           transform="scale(1,-1)"
           style="font-variant:normal;font-weight:normal;font-size:13px;font-family:'DejaVu Sans';-inkscape-font-specification:DejaVuSans;writing-mode:lr-tb;fill:#000000;fill-opacity:1;fill-rule:nonzero;stroke:none"
           id="text959"><tspan
             x="0 7.6202502 12.682 20.638 28.893 37.134998 44.285 49.381001"
             y="0"
             sodipodi:role="line"
             id="tspan957">Producto</tspan></text>
      </g>
      <g
         id="g961"
         style="stroke:#3e3e3e;stroke-opacity:0.546244">
        <g
           id="g963"
           clip-path="url(#clipPath967)"
           style="stroke:#3e3e3e;stroke-opacity:0.546244">
          <path
             d="M 364.35227,57.863636 V 319.13636"
             style="fill:none;stroke:#3e3e3e;stroke-width:1.5;stroke-linecap:butt;stroke-linejoin:round;stroke-miterlimit:10;stroke-dasharray:5.55, 2.4;stroke-dashoffset:0;stroke-opacity:0.546244"
             id="path969" />
        </g>
      </g>
      <g
         id="g971">
        <g
           id="g973"
           clip-path="url(#clipPath977)">
          <path
             d="m 134.26704,70.695765 2.19129,46.665295 2.19129,-1.51307 2.19129,-3.61317 2.19129,7.95394 2.19128,1.83552 2.19129,5.16758 2.19129,-4.14233 2.19129,-1.43039 2.19129,10.95527 2.19128,-0.55397 2.19129,9.73985 2.19129,5.56445 2.19129,-10.38476 2.19129,-1.04179 2.19128,20.30652 2.19129,18.47099 2.19129,-24.44058 2.19129,-3.37339 2.19128,-5.98613 2.19129,52.77544 2.19129,6.98657 2.19129,16.60239 2.19129,-26.68951 2.19128,-6.6641 2.19129,20.55455 2.19129,9.39259 2.19129,10.38477 2.19129,7.44131 2.19128,15.03972 2.19129,32.5268 2.19129,-32.75418 2.19129,-35.22634 2.19128,-26.33398 2.19129,19.11095 2.19129,-19.5905 2.19129,36.07383 2.19129,-36.97919 2.19128,10.21527 2.19129,-20.05847 2.19129,-5.63059 2.19129,-0.33899 2.19129,10.36822 2.19128,9.59103 2.19129,-30.44737 2.19129,-5.77529 2.19129,-2.51351 2.19129,13.09175 2.19128,-17.8732 2.19129,11.53651 2.19129,-1.02938 2.19129,-12.23269 2.19128,3.53876 2.19129,-1.65363 2.19129,-12.63369 2.19129,14.35346 2.19129,-0.99217 2.19128,-9.42566 2.19129,5.98612 2.19129,-4.5144 2.19129,13.63414 2.19129,-5.38255 2.19128,-12.43526 2.19129,22.82002 2.19129,-21.33176 2.19129,2.08357 2.19128,19.39867 2.19129,-4.55077 2.19129,-0.72594 2.19129,7.12712 2.19129,5.52228 2.19129,-10.32192 2.19128,42.10128 2.19129,7.75964 2.19129,-36.29707 2.19129,46.84306 2.19128,-45.54496 2.19129,40.56342 2.19129,12.72877 2.19129,-15.28362 2.19129,52.84158 2.19128,-63.87953 2.19129,37.04947 2.19129,-9.69025 2.19129,22.92751 2.19128,26.13554 2.19129,-72.79256 2.19129,16.31301 2.19129,-6.044 2.19129,-27.47498 2.19128,15.28363 2.19129,18.42551 2.19129,-7.10232 2.19129,-25.74694 2.19129,0.57877 2.19128,32.44826 2.19129,-21.35243 2.19129,-26.55722 2.19129,-12.55101 2.19128,-5.96959 2.19129,17.71859 2.19129,-24.0189 2.19129,14.9157 2.19129,7.05271 2.19129,-35.41651 2.19128,-3.91082 2.19129,12.78665 2.19129,1.55441 2.19129,-12.21202 2.19128,26.96235 2.19129,-14.85782 2.19129,12.26163 2.19129,-5.29987 2.19129,9.22723 2.19128,-14.33693 2.19129,9.98789 2.19129,19.38876 2.19129,-20.91009 2.19128,26.89621 2.19129,3.73719 2.19129,-9.2388 2.19129,48.38506 2.19129,-30.15385 2.19128,16.67185 2.19129,-33.83813 2.19129,41.54237 2.19129,22.49922 2.19129,7.39997 2.19128,19.43836 2.19129,30.91451 2.19129,-52.82173 2.19129,6.23912 2.19128,62.63104 2.19129,-39.38769 2.19129,-37.26939 2.19129,-16.08316 2.19129,81.08219 2.19128,-125.39437 2.19129,30.90624 2.19129,21.29869 2.19129,-18.95054 2.19129,-10.38476 2.19128,11.44308 2.19129,2.41016 2.19129,-23.02673 2.19129,11.05862 2.19129,-18.07412 2.19128,-4.89473 2.19129,10.12432 2.19129,-41.96073 2.19129,16.52798 2.19128,3.24524 2.19129,-12.80319 2.19129,4.46892 2.19129,17.00753 2.19129,-1.81899 2.19128,-38.53359 v 0"
             style="fill:none;stroke:#1f77b4;stroke-width:1.5;stroke-linecap:square;stroke-linejoin:round;stroke-miterlimit:10;stroke-dasharray:none;stroke-opacity:1"
             id="path979" />
        </g>
      </g>
      <g
         id="g981" />
      <g
         id="g991">
        <g
           id="g993"
           clip-path="url(#clipPath997)">
          <path
             d="m 134.26704,70.695765 2.19129,46.433785 2.19129,-1.28156 2.19129,-3.71239 2.19129,7.35864 2.19128,2.26546 2.19129,4.72937 2.19129,-3.47261 2.19129,-1.43039 2.19129,10.98834 2.19128,-1.81899 2.19129,10.608 2.19129,5.96132 2.19129,-11.1785 2.19129,-0.38034 2.19128,20.43881 2.19129,18.43791 2.19129,-24.47364 2.19129,-3.34033 2.19128,-6.38299 2.19129,52.35376 2.19129,7.60668 2.19129,16.8339 2.19129,-26.68951 2.19128,-8.58231 2.19129,22.34047 2.19129,9.35952 2.19129,10.08711 2.19129,-2.57965 2.19128,19.23165 2.19129,22.24953 2.19129,-30.17452 2.19129,-46.73558 2.19128,-23.32437 2.19129,6.11345 2.19129,-10.85936 2.19129,38.84365 2.19129,-32.77071 2.19128,1.02111 2.19129,-10.4013 2.19129,-14.60151 2.19129,7.14366 2.19129,12.51794 2.19128,3.20804 2.19129,-26.14381 2.19129,-3.79507 2.19129,-4.76244 2.19129,8.26316 2.19128,-15.955 2.19129,-1.99013 2.19129,-13.13392 2.19129,-6.048132 2.19128,13.096712 2.19129,1.52133 2.19129,-15.742507 2.19129,8.797287 2.19129,-5.2916 2.19128,0.19843 2.19129,2.91038 2.19129,-10.136718 2.19129,16.999268 2.19129,-6.69718 2.19128,8.30119 2.19129,2.18279 2.19129,-0.66145 2.19129,-9.06187 2.19128,24.17765 2.19129,-5.79099 2.19129,3.3089 2.19129,-0.41341 2.19129,9.88785 2.19129,-11.97555 2.19128,28.60771 2.19129,18.7149 2.19129,-31.31139 2.19129,29.14928 2.19128,-31.45608 2.19129,25.87923 2.19129,17.78887 2.19129,-8.56991 2.19129,51.81633 2.19128,-56.25632 2.19129,32.1382 2.19129,-19.08283 2.19129,19.44663 2.19128,27.00369 2.19129,-66.67415 2.19129,18.60328 2.19129,-16.27167 2.19129,-13.92352 2.19128,9.60343 2.19129,24.80437 2.19129,-16.49078 2.19129,-20.28997 2.19129,10.43437 2.19128,26.56135 4.38258,-44.90005 2.19129,-3.58837 2.19128,-7.92086 2.19129,11.99705 2.19129,-15.22162 2.19129,10.7403 2.19129,4.44825 2.19129,-38.29795 2.19128,3.20389 2.19129,16.52385 2.19129,-1.15754 2.19129,-4.60534 2.19128,13.12151 2.19129,-13.46877 2.19129,7.61494 2.19129,5.48177 2.19129,7.43304 2.19128,-12.4766 2.19129,16.07323 2.19129,8.70634 2.19129,-21.34003 2.19128,28.64905 2.19129,0.39687 2.19129,-9.4207 2.19129,56.03804 2.19129,-36.64102 2.19128,9.35125 2.19129,-19.05968 2.19129,20.49172 2.19129,17.43251 2.19129,1.20549 2.19128,32.00591 2.19129,3.18323 2.19129,-16.72146 2.19129,-14.92065 2.19128,65.2355 2.19129,-23.00854 2.19129,-48.27427 2.19129,-34.52107 2.19129,84.71189 2.19128,-90.62691 2.19129,21.26562 2.19129,18.10719 2.19129,-21.43925 2.19129,4.6963 2.19128,3.79507 2.19129,-5.06009 2.19129,-10.82711 2.19129,6.4698 2.19129,-9.77292 2.19128,-3.37339 2.19129,10.58733 2.19129,-30.02156 2.19129,-1.141 2.19128,7.7431 2.19129,-5.65953 2.19129,-10.27315 2.19129,10.7899 2.19129,14.18811 2.19128,-30.72022 v 0"
             style="fill:none;stroke:#ff7f0e;stroke-width:1.5;stroke-linecap:square;stroke-linejoin:round;stroke-miterlimit:10;stroke-dasharray:none;stroke-opacity:1"
             id="path999" />
        </g>
      </g>
      <g
         id="g1001">
        <path
           d="M 117.175,44.8 V 332.2"
           style="fill:none;stroke:#000000;stroke-width:0.8;stroke-linecap:square;stroke-linejoin:miter;stroke-miterlimit:10;stroke-dasharray:none;stroke-opacity:1"
           id="path1003" />
        <path
           d="M 117.175,44.8 H 493.2"
           style="fill:none;stroke:#000000;stroke-width:0.8;stroke-linecap:square;stroke-linejoin:miter;stroke-miterlimit:10;stroke-dasharray:none;stroke-opacity:1"
           id="path1005" />
        <g
           id="g1007"
           transform="translate(215.48437,368.2)">
          <text
             transform="scale(1,-1)"
             style="font-variant:normal;font-weight:normal;font-size:14px;font-family:'DejaVu Sans';-inkscape-font-specification:DejaVuSans;writing-mode:lr-tb;fill:#000000;fill-opacity:1;fill-rule:nonzero;stroke:none"
             id="text1011"><tspan
               x="0 9.6040001 18.48 23.408001 28.336 36.917999 40.810001 49.391998 53.844002 62.453999 66.905998 76.510002 85.386002 90.905624 96.659622 105.24162 110.72962 119.31162 123.76363 129.22362 136.258 141.71512 150.32512 157.61913 165.31912 173.88713"
               sodipodi:role="line"
               id="tspan1009"
               y="0">Buffala e Burrata (Fresco)</tspan></text>
        </g>
        <path
           d="M 126.73388,317.79062 H 135.575"
           style="fill:none;stroke:#1f77b4;stroke-width:1.8;stroke-linecap:square;stroke-linejoin:round;stroke-miterlimit:10;stroke-dasharray:none;stroke-opacity:1"
           id="path1013" />
        <g
           id="g1015"
           transform="translate(144.375,309.44062)">
          <text
             transform="scale(1,-1)"
             style="font-variant:normal;font-weight:normal;font-size:11px;font-family:'DejaVu Sans';-inkscape-font-specification:DejaVuSans;writing-mode:lr-tb;fill:#000000;fill-opacity:1;fill-rule:nonzero;stroke:none"
             id="text1019"
             y="-4.5"><tspan
               x="0 6.6802502 13.42325 16.481251 22.53125 29.26325 32.321251 39.306252 46.071251 50.592251 53.650249 60.39325 64.10025 67.598251 77.091248 84.61525 91.567253 95.274246 98.772247 105.76825 112.76425 119.76025 123.25825 130.25426"
               y="-4.5"
               sodipodi:role="line"
               id="tspan1017">Valcoiberia; MAE: 802.12</tspan></text>
        </g>
        <path
           d="M 126.73388,301.65 H 135.575"
           style="fill:none;stroke:#2ca02c;stroke-width:1.8;stroke-linecap:square;stroke-linejoin:round;stroke-miterlimit:10;stroke-dasharray:none;stroke-opacity:1"
           id="path1021" />
        <g
           id="g1023"
           transform="translate(144.375,297.8)">
          <text
             transform="scale(1,-1)"
             style="font-variant:normal;font-weight:normal;font-size:11px;font-family:'DejaVu Sans';-inkscape-font-specification:DejaVuSans;writing-mode:lr-tb;fill:#000000;fill-opacity:1;fill-rule:nonzero;stroke:none"
             id="text1027"><tspan
               x="0 9.493 16.225 23.209999 29.975 33.033001 39.764999 43.472 46.970001 56.463001 63.987 70.939003 74.646004 78.143997 85.139999 92.136002 99.132004 102.63 109.626"
               y="0"
               sodipodi:role="line"
               id="tspan1025">Modelo; MAE: 553.38</tspan></text>
        </g>
        <path
           d="M 126.73388,285.50937 H 135.575"
           style="fill:none;stroke:#ff7f0e;stroke-width:1.8;stroke-linecap:square;stroke-linejoin:round;stroke-miterlimit:10;stroke-dasharray:none;stroke-opacity:1"
           id="path1029" />
        <g
           id="g1031"
           transform="translate(144.375,281.65937)">
          <text
             transform="scale(1,-1)"
             style="font-variant:normal;font-weight:normal;font-size:11px;font-family:'DejaVu Sans';-inkscape-font-specification:DejaVuSans;writing-mode:lr-tb;fill:#000000;fill-opacity:1;fill-rule:nonzero;stroke:none"
             id="text1035"><tspan
               x="0 6.2423749 13.007375 17.528376 21.400375 28.165375 34.215374 38.527374"
               y="0"
               sodipodi:role="line"
               id="tspan1033">Perfecto</tspan></text>
        </g>
        <path
           style="fill:none;stroke:#3e3e3e;stroke-width:1.60157;stroke-linecap:butt;stroke-linejoin:miter;stroke-miterlimit:4;stroke-dasharray:none;stroke-dashoffset:0;stroke-opacity:0.546244"
           d="M 127.78915,338.5696 H 353.71796"
           id="path1139" />
        <path
           style="fill:none;stroke:#3e3e3e;stroke-width:1.60157;stroke-linecap:butt;stroke-linejoin:miter;stroke-miterlimit:4;stroke-dasharray:none;stroke-dashoffset:0;stroke-opacity:0.546244"
           d="m 373.59345,338.5696 h 105.242"
           id="path1139-3" />
        <text
           xml:space="preserve"
           style="font-size:13px;line-height:1.25;font-family:Arial;-inkscape-font-specification:Arial;letter-spacing:0px;word-spacing:0px;stroke-width:0.75"
           x="229.65038"
           y="-349.47546"
           id="text1163"
           transform="scale(1,-1)"><tspan
             sodipodi:role="line"
             id="tspan1161"
             x="229.65038"
             y="-349.47546"
             style="font-style:normal;font-variant:normal;font-weight:normal;font-stretch:normal;font-size:13px;font-family:'DejaVu Sans';-inkscape-font-specification:'DejaVu Sans';fill:#6a6a6a;fill-opacity:1;stroke-width:0.75">Train</tspan></text>
        <text
           xml:space="preserve"
           style="font-size:13px;line-height:1.25;font-family:Arial;-inkscape-font-specification:Arial;letter-spacing:0px;word-spacing:0px;stroke-width:0.75"
           x="412.70639"
           y="-349.66003"
           id="text1163-6"
           transform="scale(1,-1)"><tspan
             sodipodi:role="line"
             id="tspan1161-7"
             x="412.70639"
             y="-349.66003"
             style="font-style:normal;font-variant:normal;font-weight:normal;font-stretch:normal;font-size:13px;font-family:'DejaVu Sans';-inkscape-font-specification:'DejaVu Sans';fill:#6a6a6a;fill-opacity:1;stroke-width:0.75">Test</tspan></text>
      </g>
    </g>
    <g
       id="g983"
       clip-path="url(#clipPath987)"
       transform="matrix(0.35277777,0,0,-0.35277777,0.47550319,202.59459)">
      <path
         d="m 362.16099,137.28265 2.19128,-21.25034 2.19129,-14.03581 2.19129,18.19092 2.19129,4.60195 2.19128,-17.75968 2.19129,11.75754 4.38258,2.53214 2.19129,3.83041 2.19128,10.88972 2.19129,-11.75828 2.19129,10.48573 2.19129,11.17125 2.19128,-10.00962 2.19129,8.38465 2.19129,12.37832 2.19129,-3.28617 2.19129,24.22121 2.19128,1.1464 2.19129,-1.64073 2.19129,-18.31947 2.19129,28.75883 2.19129,-0.98324 2.19128,9.08889 2.19129,12.93993 2.19129,18.70376 2.19129,-4.52117 2.19128,-16.72042 2.19129,47.88564 2.19129,-0.85589 4.38258,-78.79256 2.19128,65.5849 2.19129,-56.48795 2.19129,-12.81807 2.19129,8.4194 2.19129,1.09546 2.19128,-10.68845 2.19129,5.67793 2.19129,0.13325 2.19129,-8.29154 2.19129,1.57003 2.19128,-5.28843 2.19129,-4.17996 2.19129,2.64148 2.19129,-13.45321 2.19128,-6.79844 2.19129,-0.80169 2.19129,-2.15122 2.19129,-8.80479 2.19129,3.86353 2.19128,9.19848 v 0"
         style="fill:none;stroke:#2ca02c;stroke-width:1.5;stroke-linecap:square;stroke-linejoin:round;stroke-miterlimit:10;stroke-dasharray:none;stroke-opacity:1"
         id="path989" />
    </g>
  </g>
</svg>
